<svg width="70" height="50" viewBox="0 0 70 50" fill="none" xmlns="http://www.w3.org/2000/svg">
<path d="M35.2447 0.917922C41.5156 2.2948 47.409 6.762 50.6316 12.5755L51.7928 14.6867L50.8638 15.5434C50.3412 16.0024 49.5574 16.6449 49.1219 16.9815L48.3671 17.5934L47.1768 15.3292C45.7252 12.5449 42.9091 9.48516 40.2382 7.83291C34.1124 3.97765 26.6512 3.88586 20.4384 7.58813C18.1449 8.93441 14.3998 13.0344 13.1805 15.4822L12.1643 17.5016L10.1902 16.8897C9.116 16.5531 8.24505 16.1554 8.24505 16.0024C8.24505 15.5434 9.72567 12.6061 10.8869 10.8314C12.5708 8.23067 16.1127 4.95676 18.9868 3.3963C21.3094 2.14181 24.2997 0.948516 25.9545 0.673141C27.7835 0.336571 33.3286 0.48956 35.2447 0.917922ZM15.0675 20.9285C20.09 21.9689 23.7481 22.2748 28.5673 22.0912C31.0351 21.9688 33.6479 21.8159 34.3737 21.7241C35.506 21.5711 35.5931 21.6017 34.9544 21.9077C33.0673 22.795 29.2641 24.0495 26.0996 24.7838C18.5223 26.589 8.50633 26.0077 1.16127 23.3151L0 22.8868L2.38061 20.3166L4.73219 17.7158L8.44827 19.0009C10.4805 19.7353 13.4708 20.592 15.0675 20.9285Z" fill="#C6F6FF"/>
<path d="M68.1307 0.549686C67.6662 0.855658 65.1114 2.29373 62.4695 3.7318C54.9792 7.83184 55.0373 7.80124 56.605 8.53558C57.0405 8.78035 57.6211 9.05573 57.8824 9.20872C58.1727 9.3617 58.5792 9.48409 58.8115 9.48409C59.1598 9.48409 64.763 5.04749 65.3726 4.31315C65.4597 4.22136 65.9823 3.793 66.5339 3.39523L67.55 2.6303L66.3888 4.16016C65.7791 4.98629 64.9372 5.996 64.5017 6.42436C64.0952 6.85272 63.1953 7.95423 62.4695 8.87215C61.7437 9.79006 61.0759 10.6468 60.9308 10.7386C60.6405 10.9528 60.5534 13.9819 60.8437 14.2879C60.9598 14.4103 61.5695 13.9207 62.1791 13.217C62.8178 12.5132 63.4275 11.9319 63.5436 11.9319C63.6598 11.9319 64.5598 12.3602 65.4888 12.8498C66.4178 13.3393 67.2888 13.6759 67.4049 13.6147C67.521 13.5229 67.6952 12.9722 67.7823 12.3296C67.8984 11.6871 68.1016 10.6162 68.2468 9.94305C68.392 9.26991 68.7113 7.55646 68.9726 6.11839C69.2339 4.68032 69.5823 3.02807 69.7274 2.41612C70.3661 -0.0316628 69.9016 -0.551816 68.1307 0.549686Z" fill="#7468F0"/>
<path d="M55.0664 15.3588C46.1536 23.5282 39.0408 28.1178 28.0667 32.7074C26.1506 33.5335 23.8571 34.4209 22.9862 34.7268C20.6346 35.5224 20.6055 35.5224 20.983 38.7045C21.1571 40.2344 21.3894 41.55 21.5055 41.6724C21.7668 41.9784 28.2409 38.6433 32.5086 36.0425C40.4343 31.2388 45.4568 27.1387 51.4374 20.5909C54.4567 17.317 57.2728 13.7677 56.8954 13.7677C56.8373 13.7677 56.0244 14.502 55.0664 15.3588Z" fill="#7468F0"/>
<path d="M40.6954 22.7021C40.289 22.8857 39.1858 23.4059 38.2277 23.8648C34.86 25.4865 30.0117 26.9858 24.8731 28.0261C20.3151 28.944 10.8217 28.9134 7.68623 27.9649C6.69914 27.6895 6.55398 28.5156 7.13462 30.994C8.67331 37.756 12.7668 43.5083 18.5151 46.9658C19.7054 47.7001 21.8247 48.6792 23.2183 49.1382C25.5118 49.9031 26.1505 49.9949 30.0988 49.9949C33.9601 50.0255 34.7149 49.9337 36.631 49.2912C47.0534 45.7113 53.7598 36.5015 53.7598 25.7313C53.7598 24.2014 53.6727 22.9469 53.5566 22.9469C53.4114 22.9469 52.4533 23.8036 51.4082 24.8745C49.5502 26.7104 49.4921 26.8328 49.2889 28.6074C48.7953 33.8089 45.5147 39.1329 40.8406 42.4068C39.1568 43.6001 37.9374 44.212 35.1794 45.1911C33.5536 45.7725 27.486 45.8643 25.5989 45.3135C20.6054 43.906 16.5409 40.8769 13.87 36.6239C12.5926 34.6045 12.7087 34.1149 14.5087 33.8701C16.0764 33.656 21.0118 32.2791 24.5828 31.0552C27.0214 30.1985 31.8117 28.0873 34.6859 26.588C39.2439 24.1708 43.4825 21.4476 40.6954 22.7021Z" fill="#7468F0"/>
</svg>
